<svg width="24" height="24" viewBox="0 0 24 24" fill="none" xmlns="http://www.w3.org/2000/svg">
<path d="M9.2002 2.5H14.7998C15.4222 2.5 15.9556 2.80541 16.2656 3.34766L16.3848 3.55664L16.6221 3.59375C18.2791 3.85539 19.5 5.24607 19.5 7V18C19.5 19.9239 17.9239 21.5 16 21.5H8C6.07614 21.5 4.5 19.9239 4.5 18V7C4.5 5.24607 5.72095 3.85539 7.37793 3.59375L7.61523 3.55664L7.73438 3.34766C8.04442 2.80541 8.57782 2.5 9.2002 2.5ZM6.72266 4.78418C6.00747 5.26101 5.5 6.00609 5.5 7V18.0996C5.5 19.4758 6.62386 20.5996 8 20.5996H16C17.3761 20.5996 18.5 19.4758 18.5 18.0996V7.09961C18.4999 6.1453 18.0221 5.25175 17.2236 4.85254L16.5 4.49121V5.33203C16.496 5.34009 16.4915 5.3514 16.4854 5.36426C16.4293 5.41802 16.3906 5.47571 16.3652 5.52637C16.3465 5.56375 16.3333 5.59934 16.3242 5.63086C16.3121 5.64696 16.2987 5.66419 16.2871 5.68359C16.2785 5.69801 16.2706 5.71343 16.2627 5.72949L16.2461 5.74609L16.0469 5.94629L15.9463 6.04688C15.9287 6.06446 15.9139 6.08276 15.8994 6.09961H15.8926L15.7295 6.2627C15.7134 6.27056 15.698 6.27846 15.6836 6.28711C15.6773 6.29087 15.672 6.29593 15.666 6.2998H15.2998V6.5H9.2002C9.09035 6.5 9.05871 6.49855 9.03223 6.49414C9.01816 6.4918 8.99109 6.48673 8.92383 6.45312L8.81836 6.40039H8.66992C8.66168 6.39626 8.64964 6.39141 8.63574 6.38477C8.58212 6.32892 8.52416 6.29091 8.47363 6.26562C8.43593 6.24678 8.39988 6.23372 8.36816 6.22461C8.35218 6.21263 8.33563 6.19806 8.31641 6.18652C8.30176 6.17775 8.28588 6.17007 8.26953 6.16211L8.05371 5.94629L7.95312 5.84668C7.93537 5.82893 7.9174 5.8134 7.90039 5.79883V5.79297L7.7002 5.59277V5.2002H7.5V4.26562L6.72266 4.78418ZM7.6582 5.55078C7.65906 5.55167 7.65952 5.55304 7.66016 5.55371L7.65332 5.54688H7.6543L7.6582 5.55078ZM7.59863 5.56836C7.599 5.57356 7.59944 5.57898 7.59961 5.58398V5.59961L7.59766 5.55566C7.59812 5.56007 7.59834 5.56431 7.59863 5.56836ZM15.5 3.89258L15.1074 3.5H9.2002C9 3.5 8.84762 3.59216 8.78516 3.63379C8.74582 3.66001 8.71364 3.68602 8.69141 3.70508C8.6802 3.7147 8.67052 3.72353 8.66309 3.73047C8.65947 3.73385 8.65604 3.73663 8.65332 3.73926L8.64746 3.74512V3.74609H8.64648L8.5 3.89258V4.7998C8.5 5.01242 8.60131 5.18334 8.70898 5.29102C8.81666 5.39869 8.98758 5.5 9.2002 5.5H14.7998C15.0124 5.5 15.1833 5.39869 15.291 5.29102C15.3987 5.18334 15.5 5.01242 15.5 4.7998V3.89258Z" stroke="#3D3936"/>
<path d="M9 16H11C11.6 16 12 15.6 12 15C12 14.4 11.6 14 11 14H9C8.4 14 8 14.4 8 15C8 15.6 8.4 16 9 16ZM9 12H15C15.6 12 16 11.6 16 11C16 10.4 15.6 10 15 10H9C8.4 10 8 10.4 8 11C8 11.6 8.4 12 9 12Z" fill="#3D3936"/>
</svg>
