<svg width="22" height="18" viewBox="0 0 22 18" fill="none" xmlns="http://www.w3.org/2000/svg">
<path fill-rule="evenodd" clip-rule="evenodd" d="M7.32129 0C5.52701 0 3.87029 0.961431 2.98007 2.51931L0.658784 6.58156C0.227077 7.33705 0 8.19212 0 9.06226V13C0 15.7614 2.23858 18 5 18H17C19.7614 18 22 15.7614 22 13V9.06226C22 8.19212 21.7729 7.33705 21.3412 6.58156L19.0199 2.51931C18.1297 0.96143 16.473 0 14.6787 0H7.32129ZM4.71656 3.51158C5.25069 2.57686 6.24472 2 7.32129 2H14.6787C15.7553 2 16.7493 2.57686 17.2834 3.51158L19.2768 7H15C13.8954 7 13 7.89543 13 9C13 9.55229 12.5523 10 12 10H10C9.44772 10 9 9.55228 9 9C9 7.89543 8.10457 7 7 7H2.72318L4.71656 3.51158ZM2.00065 9C2.00022 9.02074 2 9.04149 2 9.06226V13C2 14.6569 3.34315 16 5 16H17C18.6569 16 20 14.6569 20 13V9.06226C20 9.04149 19.9998 9.02074 19.9994 9H15C15 10.6569 13.6569 12 12 12H10C8.34315 12 7 10.6569 7 9H2.00065Z" fill="#3D3936"/>
</svg>
